<svg id="visual" viewBox="0 0 960 540" width="960" height="540" xmlns="http://www.w3.org/2000/svg" xmlns:xlink="http://www.w3.org/1999/xlink" version="1.1"><path d="M0 109L14.5 98.2C29 87.3 58 65.7 87.2 65.7C116.3 65.7 145.7 87.3 174.8 89.2C204 91 233 73 262 63.2C291 53.3 320 51.7 349 58.8C378 66 407 82 436.2 91C465.3 100 494.7 102 523.8 95.7C553 89.3 582 74.7 611 73.7C640 72.7 669 85.3 698 84.5C727 83.7 756 69.3 785.2 70.3C814.3 71.3 843.7 87.7 872.8 92.2C902 96.7 931 89.3 945.5 85.7L960 82L960 0L945.5 0C931 0 902 0 872.8 0C843.7 0 814.3 0 785.2 0C756 0 727 0 698 0C669 0 640 0 611 0C582 0 553 0 523.8 0C494.7 0 465.3 0 436.2 0C407 0 378 0 349 0C320 0 291 0 262 0C233 0 204 0 174.8 0C145.7 0 116.3 0 87.2 0C58 0 29 0 14.5 0L0 0Z" fill="#6198ff"></path><path d="M0 298L14.5 279.2C29 260.3 58 222.7 87.2 203.8C116.3 185 145.7 185 174.8 180.5C204 176 233 167 262 170.5C291 174 320 190 349 199.8C378 209.7 407 213.3 436.2 215.2C465.3 217 494.7 217 523.8 212.5C553 208 582 199 611 212.5C640 226 669 262 698 255.7C727 249.3 756 200.7 785.2 201.5C814.3 202.3 843.7 252.7 872.8 272.5C902 292.3 931 281.7 945.5 276.3L960 271L960 80L945.5 83.7C931 87.3 902 94.7 872.8 90.2C843.7 85.7 814.3 69.3 785.2 68.3C756 67.3 727 81.7 698 82.5C669 83.3 640 70.7 611 71.7C582 72.7 553 87.3 523.8 93.7C494.7 100 465.3 98 436.2 89C407 80 378 64 349 56.8C320 49.7 291 51.3 262 61.2C233 71 204 89 174.8 87.2C145.7 85.3 116.3 63.7 87.2 63.7C58 63.7 29 85.3 14.5 96.2L0 107Z" fill="#3c80ff"></path><path d="M0 390L14.5 391.8C29 393.7 58 397.3 87.2 396.3C116.3 395.3 145.7 389.7 174.8 389.7C204 389.7 233 395.3 262 391.8C291 388.3 320 375.7 349 381C378 386.3 407 409.7 436.2 410.5C465.3 411.3 494.7 389.7 523.8 385.2C553 380.7 582 393.3 611 405C640 416.7 669 427.3 698 420.2C727 413 756 388 785.2 381.8C814.3 375.7 843.7 388.3 872.8 385.7C902 383 931 365 945.5 356L960 347L960 269L945.5 274.3C931 279.7 902 290.3 872.8 270.5C843.7 250.7 814.3 200.3 785.2 199.5C756 198.7 727 247.3 698 253.7C669 260 640 224 611 210.5C582 197 553 206 523.8 210.5C494.7 215 465.3 215 436.2 213.2C407 211.3 378 207.7 349 197.8C320 188 291 172 262 168.5C233 165 204 174 174.8 178.5C145.7 183 116.3 183 87.2 201.8C58 220.7 29 258.3 14.5 277.2L0 296Z" fill="#0066ff"></path><path d="M0 438L14.5 446.2C29 454.3 58 470.7 87.2 471.7C116.3 472.7 145.7 458.3 174.8 449.3C204 440.3 233 436.7 262 428.5C291 420.3 320 407.7 349 415.8C378 424 407 453 436.2 456.7C465.3 460.3 494.7 438.7 523.8 433.2C553 427.7 582 438.3 611 451.8C640 465.3 669 481.7 698 479C727 476.3 756 454.7 785.2 445.7C814.3 436.7 843.7 440.3 872.8 435.8C902 431.3 931 418.7 945.5 412.3L960 406L960 345L945.5 354C931 363 902 381 872.8 383.7C843.7 386.3 814.3 373.7 785.2 379.8C756 386 727 411 698 418.2C669 425.3 640 414.7 611 403C582 391.3 553 378.7 523.8 383.2C494.7 387.7 465.3 409.3 436.2 408.5C407 407.7 378 384.3 349 379C320 373.7 291 386.3 262 389.8C233 393.3 204 387.7 174.8 387.7C145.7 387.7 116.3 393.3 87.2 394.3C58 395.3 29 391.7 14.5 389.8L0 388Z" fill="#0059dd"></path><path d="M0 541L14.5 541C29 541 58 541 87.2 541C116.3 541 145.7 541 174.8 541C204 541 233 541 262 541C291 541 320 541 349 541C378 541 407 541 436.2 541C465.3 541 494.7 541 523.8 541C553 541 582 541 611 541C640 541 669 541 698 541C727 541 756 541 785.2 541C814.3 541 843.7 541 872.8 541C902 541 931 541 945.5 541L960 541L960 404L945.5 410.3C931 416.7 902 429.3 872.8 433.8C843.7 438.3 814.3 434.7 785.2 443.7C756 452.7 727 474.3 698 477C669 479.7 640 463.3 611 449.8C582 436.3 553 425.7 523.8 431.2C494.7 436.7 465.3 458.3 436.2 454.7C407 451 378 422 349 413.8C320 405.7 291 418.3 262 426.5C233 434.7 204 438.3 174.8 447.3C145.7 456.3 116.3 470.7 87.2 469.7C58 468.7 29 452.3 14.5 444.2L0 436Z" fill="#004cbb"></path></svg>