<svg id="visual" viewBox="0 0 960 540" width="960" height="540" xmlns="http://www.w3.org/2000/svg" xmlns:xlink="http://www.w3.org/1999/xlink" version="1.1"><g stroke-width="1" stroke-linejoin="bevel"><path d="M484 267L447 199L363 236Z" fill="#277297" stroke="#277297"></path><path d="M363 236L450 356L484 267Z" fill="#0c2435" stroke="#0c2435"></path><path d="M363 236L420 368L450 356Z" fill="#277297" stroke="#277297"></path><path d="M363 236L315 291L420 368Z" fill="#277297" stroke="#277297"></path><path d="M447 199L365 148L363 236Z" fill="#081a28" stroke="#081a28"></path><path d="M363 236L302 143L315 291Z" fill="#081a28" stroke="#081a28"></path><path d="M365 148L302 143L363 236Z" fill="#15384f" stroke="#15384f"></path><path d="M571 381L588 257L484 267Z" fill="#0c2435" stroke="#0c2435"></path><path d="M484 267L556 151L447 199Z" fill="#1d4e6b" stroke="#1d4e6b"></path><path d="M447 199L460 81L365 148Z" fill="#1d4e6b" stroke="#1d4e6b"></path><path d="M588 257L556 151L484 267Z" fill="#00101c" stroke="#00101c"></path><path d="M365 148L310 106L302 143Z" fill="#1d4e6b" stroke="#1d4e6b"></path><path d="M556 151L460 81L447 199Z" fill="#277297" stroke="#277297"></path><path d="M395 64L310 106L365 148Z" fill="#277297" stroke="#277297"></path><path d="M489 470L571 381L450 356Z" fill="#00101c" stroke="#00101c"></path><path d="M450 356L571 381L484 267Z" fill="#277297" stroke="#277297"></path><path d="M460 81L395 64L365 148Z" fill="#19435d" stroke="#19435d"></path><path d="M219 352L261 370L315 291Z" fill="#1d4e6b" stroke="#1d4e6b"></path><path d="M315 291L261 370L420 368Z" fill="#297ea6" stroke="#297ea6"></path><path d="M420 368L489 470L450 356Z" fill="#297ea6" stroke="#297ea6"></path><path d="M302 143L211 262L315 291Z" fill="#00101c" stroke="#00101c"></path><path d="M181 146L211 262L302 143Z" fill="#081a28" stroke="#081a28"></path><path d="M261 370L347 464L420 368Z" fill="#0c2435" stroke="#0c2435"></path><path d="M347 464L489 470L420 368Z" fill="#246688" stroke="#246688"></path><path d="M211 262L219 352L315 291Z" fill="#15384f" stroke="#15384f"></path><path d="M261 370L322 478L347 464Z" fill="#19435d" stroke="#19435d"></path><path d="M219 465L322 478L261 370Z" fill="#00101c" stroke="#00101c"></path><path d="M347 464L378 540L489 470Z" fill="#1d4e6b" stroke="#1d4e6b"></path><path d="M652 60L582 55L556 151Z" fill="#081a28" stroke="#081a28"></path><path d="M556 151L582 55L460 81Z" fill="#15384f" stroke="#15384f"></path><path d="M450 0L396 0L395 64Z" fill="#297ea6" stroke="#297ea6"></path><path d="M450 0L395 64L460 81Z" fill="#19435d" stroke="#19435d"></path><path d="M395 64L294 0L310 106Z" fill="#297ea6" stroke="#297ea6"></path><path d="M562 0L450 0L460 81Z" fill="#297ea6" stroke="#297ea6"></path><path d="M489 470L581 461L571 381Z" fill="#277297" stroke="#277297"></path><path d="M571 381L684 300L588 257Z" fill="#277297" stroke="#277297"></path><path d="M175 115L302 143L310 106Z" fill="#1d4e6b" stroke="#1d4e6b"></path><path d="M175 115L181 146L302 143Z" fill="#15384f" stroke="#15384f"></path><path d="M211 262L102 261L219 352Z" fill="#112e42" stroke="#112e42"></path><path d="M705 343L684 300L571 381Z" fill="#00101c" stroke="#00101c"></path><path d="M588 257L697 190L556 151Z" fill="#15384f" stroke="#15384f"></path><path d="M684 300L697 190L588 257Z" fill="#297ea6" stroke="#297ea6"></path><path d="M200 0L175 115L310 106Z" fill="#00101c" stroke="#00101c"></path><path d="M125 468L219 465L219 352Z" fill="#15384f" stroke="#15384f"></path><path d="M396 0L294 0L395 64Z" fill="#0c2435" stroke="#0c2435"></path><path d="M322 478L378 540L347 464Z" fill="#00101c" stroke="#00101c"></path><path d="M489 470L489 540L581 461Z" fill="#112e42" stroke="#112e42"></path><path d="M594 540L637 448L581 461Z" fill="#112e42" stroke="#112e42"></path><path d="M581 461L637 448L571 381Z" fill="#277297" stroke="#277297"></path><path d="M322 478L275 540L378 540Z" fill="#081a28" stroke="#081a28"></path><path d="M219 352L219 465L261 370Z" fill="#205a7a" stroke="#205a7a"></path><path d="M122 161L211 262L181 146Z" fill="#246688" stroke="#246688"></path><path d="M378 540L489 540L489 470Z" fill="#112e42" stroke="#112e42"></path><path d="M675 0L562 0L582 55Z" fill="#246688" stroke="#246688"></path><path d="M582 55L562 0L460 81Z" fill="#246688" stroke="#246688"></path><path d="M637 448L705 343L571 381Z" fill="#00101c" stroke="#00101c"></path><path d="M684 300L755 283L697 190Z" fill="#1d4e6b" stroke="#1d4e6b"></path><path d="M697 190L652 60L556 151Z" fill="#1d4e6b" stroke="#1d4e6b"></path><path d="M114 54L122 161L175 115Z" fill="#297ea6" stroke="#297ea6"></path><path d="M175 115L122 161L181 146Z" fill="#00101c" stroke="#00101c"></path><path d="M219 465L275 540L322 478Z" fill="#112e42" stroke="#112e42"></path><path d="M122 161L102 261L211 262Z" fill="#1d4e6b" stroke="#1d4e6b"></path><path d="M489 540L594 540L581 461Z" fill="#246688" stroke="#246688"></path><path d="M741 468L758 344L705 343Z" fill="#277297" stroke="#277297"></path><path d="M705 343L755 283L684 300Z" fill="#277297" stroke="#277297"></path><path d="M697 190L754 107L652 60Z" fill="#246688" stroke="#246688"></path><path d="M758 344L755 283L705 343Z" fill="#112e42" stroke="#112e42"></path><path d="M294 0L200 0L310 106Z" fill="#297ea6" stroke="#297ea6"></path><path d="M755 283L749 158L697 190Z" fill="#297ea6" stroke="#297ea6"></path><path d="M741 468L705 343L637 448Z" fill="#081a28" stroke="#081a28"></path><path d="M861 112L754 107L749 158Z" fill="#19435d" stroke="#19435d"></path><path d="M754 107L675 0L652 60Z" fill="#081a28" stroke="#081a28"></path><path d="M652 60L675 0L582 55Z" fill="#112e42" stroke="#112e42"></path><path d="M125 468L199 540L219 465Z" fill="#15384f" stroke="#15384f"></path><path d="M219 465L199 540L275 540Z" fill="#081a28" stroke="#081a28"></path><path d="M865 213L749 158L755 283Z" fill="#277297" stroke="#277297"></path><path d="M749 158L754 107L697 190Z" fill="#205a7a" stroke="#205a7a"></path><path d="M102 261L80 382L219 352Z" fill="#277297" stroke="#277297"></path><path d="M80 382L125 468L219 352Z" fill="#1d4e6b" stroke="#1d4e6b"></path><path d="M200 0L114 54L175 115Z" fill="#15384f" stroke="#15384f"></path><path d="M0 204L0 283L102 261Z" fill="#277297" stroke="#277297"></path><path d="M102 261L0 283L80 382Z" fill="#00101c" stroke="#00101c"></path><path d="M690 540L741 468L637 448Z" fill="#205a7a" stroke="#205a7a"></path><path d="M594 540L690 540L637 448Z" fill="#15384f" stroke="#15384f"></path><path d="M200 0L125 0L114 54Z" fill="#205a7a" stroke="#205a7a"></path><path d="M0 204L102 261L122 161Z" fill="#112e42" stroke="#112e42"></path><path d="M80 382L0 417L125 468Z" fill="#112e42" stroke="#112e42"></path><path d="M0 204L122 161L0 120Z" fill="#277297" stroke="#277297"></path><path d="M0 120L122 161L114 54Z" fill="#00101c" stroke="#00101c"></path><path d="M891 352L849 279L758 344Z" fill="#297ea6" stroke="#297ea6"></path><path d="M758 344L849 279L755 283Z" fill="#1d4e6b" stroke="#1d4e6b"></path><path d="M690 540L752 540L741 468Z" fill="#246688" stroke="#246688"></path><path d="M870 429L891 352L758 344Z" fill="#205a7a" stroke="#205a7a"></path><path d="M861 112L777 0L754 107Z" fill="#1d4e6b" stroke="#1d4e6b"></path><path d="M754 107L777 0L675 0Z" fill="#112e42" stroke="#112e42"></path><path d="M0 283L0 383L80 382Z" fill="#00101c" stroke="#00101c"></path><path d="M125 468L82 540L199 540Z" fill="#246688" stroke="#246688"></path><path d="M0 417L82 540L125 468Z" fill="#297ea6" stroke="#297ea6"></path><path d="M0 0L0 120L114 54Z" fill="#277297" stroke="#277297"></path><path d="M849 279L865 213L755 283Z" fill="#00101c" stroke="#00101c"></path><path d="M0 383L0 417L80 382Z" fill="#0c2435" stroke="#0c2435"></path><path d="M865 213L861 112L749 158Z" fill="#081a28" stroke="#081a28"></path><path d="M849 279L960 245L865 213Z" fill="#19435d" stroke="#19435d"></path><path d="M960 54L885 0L861 112Z" fill="#15384f" stroke="#15384f"></path><path d="M870 429L758 344L741 468Z" fill="#1d4e6b" stroke="#1d4e6b"></path><path d="M861 540L870 429L741 468Z" fill="#19435d" stroke="#19435d"></path><path d="M125 0L0 0L114 54Z" fill="#0c2435" stroke="#0c2435"></path><path d="M0 417L0 540L82 540Z" fill="#246688" stroke="#246688"></path><path d="M752 540L861 540L741 468Z" fill="#112e42" stroke="#112e42"></path><path d="M960 337L960 245L891 352Z" fill="#297ea6" stroke="#297ea6"></path><path d="M960 203L861 112L865 213Z" fill="#19435d" stroke="#19435d"></path><path d="M861 112L885 0L777 0Z" fill="#205a7a" stroke="#205a7a"></path><path d="M960 337L891 352L960 455Z" fill="#297ea6" stroke="#297ea6"></path><path d="M891 352L960 245L849 279Z" fill="#00101c" stroke="#00101c"></path><path d="M960 245L960 203L865 213Z" fill="#205a7a" stroke="#205a7a"></path><path d="M960 455L891 352L870 429Z" fill="#00101c" stroke="#00101c"></path><path d="M861 540L960 455L870 429Z" fill="#081a28" stroke="#081a28"></path><path d="M960 203L960 54L861 112Z" fill="#081a28" stroke="#081a28"></path><path d="M960 54L960 0L885 0Z" fill="#0c2435" stroke="#0c2435"></path><path d="M861 540L960 540L960 455Z" fill="#277297" stroke="#277297"></path></g></svg>